<svg xmlns="http://www.w3.org/2000/svg" width="36" height="36" fill="none" viewBox="0 0 36 36"><g fill="#121414" clip-path="url(#clip0_552_4754)"><path d="M29.347 12.681a9.473 9.473 0 0 0-4.457-4.963l.335-.834a.65.65 0 0 0-.325-.834.61.61 0 0 0-.804.338l-.336.834a8.9 8.9 0 0 0-6.534.19c-2.3.982-4.091 2.82-5.048 5.206a.675.675 0 0 0 .071.623c.122.18.336.275.55.254l.386-.043a4.383 4.383 0 0 1 3.624 1.331l.62.644c.235.254.57.38.906.37l.733-.032c.407-.01.794.053 1.18.148l-1.892 4.689a.859.859 0 0 1-.458.475.869.869 0 0 1-.652 0 .827.827 0 0 1-.458-.475.966.966 0 0 1 0-.676.65.65 0 0 0-.325-.834.61.61 0 0 0-.805.338c-.437 1.087.062 2.354 1.11 2.808.254.117.53.17.794.17s.529-.053.783-.159a2.12 2.12 0 0 0 1.12-1.162l1.903-4.72c.367.211.713.444 1.008.76l.773.803c.234.243.54.412.865.37h.56a4.498 4.498 0 0 1 3.654 1.9.584.584 0 0 0 .488.264h.072a.6.6 0 0 0 .488-.38 9.9 9.9 0 0 0 .02-7.381l.051-.021Zm-.824 5.914a5.588 5.588 0 0 0-3.867-1.573H24.055l-.773-.792c-1.12-1.162-2.657-1.796-4.244-1.722l-.723.032-.631-.644a5.548 5.548 0 0 0-3.929-1.721 8.157 8.157 0 0 1 3.929-3.57 7.757 7.757 0 0 1 6.178.021c1.984.866 3.531 2.482 4.356 4.552a8.566 8.566 0 0 1 .305 5.428v-.01Z"/><path d="m24.218 11.858-.855-.37.356-.887a.65.65 0 0 0-.326-.834.61.61 0 0 0-.804.338l-.356.887-.855-.37a.61.61 0 0 0-.804.338.65.65 0 0 0 .326.834l.855.37-.356.887a.65.65 0 0 0 .325.834.626.626 0 0 0 .234.053.606.606 0 0 0 .56-.39l.356-.888.855.37a.626.626 0 0 0 .234.053.606.606 0 0 0 .56-.39.65.65 0 0 0-.326-.835h.02ZM25.317 19.303a.603.603 0 0 0-.753.433l-.835 3.02a.34.34 0 0 1-.325.253H13.287a.341.341 0 0 1-.326-.253L9.97 12.28c-.193-.686-.814-1.161-1.496-1.161H6.611a.624.624 0 0 0-.611.633c0 .349.275.634.61.634h1.863a.34.34 0 0 1 .326.253l2.992 10.476c.193.687.814 1.162 1.496 1.162h10.117c.692 0 1.313-.486 1.496-1.172l.834-3.02a.633.633 0 0 0-.417-.782ZM14.498 25.501c-1.19 0-2.168 1.014-2.168 2.25 0 1.235.977 2.249 2.168 2.249 1.191 0 2.168-1.014 2.168-2.25 0-1.235-.977-2.249-2.168-2.249Zm0 3.242c-.519 0-.946-.443-.946-.982 0-.538.427-.982.946-.982.52 0 .947.444.947.982 0 .539-.428.982-.947.982ZM22.172 25.501c-1.19 0-2.168 1.014-2.168 2.25 0 1.235.977 2.249 2.168 2.249 1.19 0 2.168-1.014 2.168-2.25 0-1.235-.977-2.249-2.168-2.249Zm0 3.242c-.519 0-.946-.443-.946-.982 0-.538.427-.982.946-.982.52 0 .947.444.947.982 0 .539-.428.982-.947.982Z"/></g><defs><clipPath id="clip0_552_4754"><path fill="#fff" d="M6 6h24v24H6z"/></clipPath></defs></svg>